<mxfile host="drawio-plugin" modified="2022-09-09T18:42:51.350Z" agent="5.0 (Windows NT 6.2; Win64; x64) AppleWebKit/537.36 (KHTML, like Gecko) Chrome/98.0.4758.102 Safari/537.36" etag="3nwRhJs9EEyvDLHkMGjG" version="15.5.4" type="embed"><diagram id="URUpWGybv1Ea6HRCw1DB" name="Página-1"><mxGraphModel dx="734" dy="490" grid="1" gridSize="10" guides="1" tooltips="1" connect="1" arrows="1" fold="1" page="1" pageScale="1" pageWidth="1169" pageHeight="827" math="0" shadow="0"><root><mxCell id="0"/><mxCell id="1" parent="0"/><mxCell id="2" value="" style="rounded=0;whiteSpace=wrap;html=1;" vertex="1" parent="1"><mxGeometry x="170" y="110" width="120" height="60" as="geometry"/></mxCell></root></mxGraphModel></diagram></mxfile>